<?xml version="1.0" standalone="no"?>
<!DOCTYPE svg PUBLIC "-//W3C//DTD SVG 20010904//EN"
 "http://www.w3.org/TR/2001/REC-SVG-20010904/DTD/svg10.dtd">
<svg version="1.0" xmlns="http://www.w3.org/2000/svg"
 width="379.000000pt" height="394.000000pt" viewBox="0 0 379.000000 394.000000"
 preserveAspectRatio="xMidYMid meet">

<g transform="translate(0.000000,394.000000) scale(0.100000,-0.100000)"
fill="#000000" stroke="none">
<path d="M1600 3030 l-294 -441 119 -119 119 -120 -43 -132 c-66 -201 -94
-248 -176 -291 -32 -17 -58 -21 -135 -22 -169 0 -261 48 -321 170 -44 89 -40
166 14 279 21 43 35 81 32 84 -2 3 -209 78 -460 167 -455 162 -455 162 -455
136 0 -14 92 -377 203 -806 l202 -780 495 -3 495 -2 247 247 248 248 248 -248
247 -247 497 0 c464 0 497 1 502 18 3 9 93 356 201 769 176 678 209 823 189
823 -4 0 -191 -66 -418 -146 -226 -81 -430 -153 -453 -161 l-41 -14 41 -87
c37 -78 42 -95 41 -157 -1 -152 -110 -267 -277 -293 -112 -18 -214 14 -279 86
-37 41 -46 61 -107 242 l-39 115 120 121 120 121 -294 442 -295 441 -293 -440z"/>
<path d="M1753 1178 l-142 -143 139 -145 139 -145 145 145 146 145 -143 143
-142 142 -142 -142z"/>
<path d="M440 700 l0 -220 697 0 698 0 -220 220 -220 220 -477 0 -478 0 0
-220z"/>
<path d="M2175 700 l-220 -220 698 0 697 0 0 220 0 220 -478 0 -477 0 -220
-220z"/>
</g>
</svg>
