<?xml version="1.0" standalone="no"?>
<!DOCTYPE svg PUBLIC "-//W3C//DTD SVG 20010904//EN"
 "http://www.w3.org/TR/2001/REC-SVG-20010904/DTD/svg10.dtd">
<svg version="1.0" xmlns="http://www.w3.org/2000/svg"
 width="379.000000pt" height="394.000000pt" viewBox="0 0 379.000000 394.000000"
 preserveAspectRatio="xMidYMid meet">

<g transform="translate(0.000000,394.000000) scale(0.100000,-0.100000)"
fill="#000000" stroke="none">
<path d="M1730 2560 l-162 -243 67 -67 67 -68 -22 -68 c-51 -154 -77 -179
-185 -178 -45 0 -81 6 -102 17 -75 40 -102 135 -64 222 12 27 18 52 14 56 -12
11 -495 180 -500 175 -2 -2 47 -201 109 -443 l114 -438 279 -3 279 -2 136 135
135 135 135 -135 135 -135 277 0 277 0 12 43 c68 252 217 842 214 845 -4 4
-493 -166 -504 -174 -2 -2 6 -27 18 -55 23 -57 26 -94 10 -136 -34 -91 -164
-140 -256 -96 -44 20 -75 68 -104 161 l-23 72 67 68 67 67 -156 235 c-86 129
-160 239 -164 244 -5 4 -81 -101 -170 -234z"/>
<path d="M1815 1530 l-80 -80 78 -77 77 -78 80 80 80 80 -78 78 -77 77 -80
-80z"/>
<path d="M1090 1265 l0 -125 387 0 388 0 -125 125 -125 125 -262 0 -263 0 0
-125z"/>
<path d="M2050 1265 l-125 -125 388 0 387 0 0 125 0 125 -263 0 -262 0 -125
-125z"/>
</g>
</svg>
