<?xml version="1.0" standalone="no"?>
<!DOCTYPE svg PUBLIC "-//W3C//DTD SVG 20010904//EN"
 "http://www.w3.org/TR/2001/REC-SVG-20010904/DTD/svg10.dtd">
<svg version="1.0" xmlns="http://www.w3.org/2000/svg"
 width="1000.000000pt" height="1000.000000pt" viewBox="0 0 1000.000000 1000.000000"
 preserveAspectRatio="xMidYMid meet">

<g transform="translate(0.000000,1000.000000) scale(0.100000,-0.100000)"
fill="#000000" stroke="none">
<path d="M4675 9573 c-44 -2 -84 -8 -89 -13 -6 -6 -30 -10 -55 -10 -61 0 -374
-40 -386 -50 -5 -4 -32 -11 -60 -14 -82 -12 -199 -36 -220 -46 -11 -5 -63 -19
-115 -31 -52 -12 -97 -25 -100 -28 -3 -4 -43 -18 -90 -31 -47 -13 -87 -26 -90
-29 -3 -4 -39 -17 -80 -30 -41 -13 -80 -27 -85 -32 -6 -4 -33 -15 -60 -24 -48
-16 -73 -27 -255 -114 -129 -62 -275 -141 -278 -152 -2 -5 -9 -9 -16 -9 -6 0
-38 -18 -71 -40 -33 -22 -64 -40 -68 -40 -5 0 -46 -27 -92 -60 -46 -33 -86
-60 -89 -60 -4 0 -44 -29 -91 -65 -46 -36 -87 -65 -91 -65 -4 0 -16 -9 -28
-20 -12 -12 -73 -64 -136 -117 -194 -163 -620 -604 -620 -642 0 -6 -11 -18
-25 -27 -14 -9 -25 -21 -25 -26 0 -5 -29 -47 -65 -93 -36 -47 -65 -87 -65 -91
0 -3 -27 -43 -60 -89 -33 -46 -60 -86 -60 -90 0 -4 -20 -38 -45 -76 -50 -76
-134 -230 -196 -359 -87 -183 -98 -207 -114 -255 -9 -27 -20 -54 -24 -60 -5
-5 -19 -44 -32 -85 -13 -41 -26 -77 -30 -80 -3 -3 -16 -43 -29 -90 -13 -47
-27 -87 -31 -90 -3 -3 -17 -50 -29 -105 -13 -55 -26 -104 -30 -110 -4 -5 -15
-53 -25 -105 -9 -52 -21 -104 -26 -115 -8 -20 -32 -173 -44 -290 -4 -33 -10
-69 -15 -80 -13 -29 -30 -336 -30 -535 0 -194 18 -510 30 -525 4 -5 11 -41 14
-80 10 -110 38 -289 46 -300 4 -5 16 -56 25 -112 10 -57 22 -103 27 -103 4 0
8 -7 8 -16 0 -29 40 -181 55 -210 8 -16 15 -35 15 -42 0 -17 31 -114 40 -127
4 -5 15 -37 25 -70 9 -33 25 -78 35 -100 39 -89 50 -116 50 -130 0 -8 3 -15 8
-15 4 0 15 -21 25 -48 28 -71 141 -296 157 -312 3 -3 13 -21 23 -40 29 -58 64
-119 102 -175 19 -29 35 -58 35 -64 0 -6 5 -11 10 -11 6 0 14 -8 17 -17 6 -17
74 -122 109 -168 57 -77 157 -203 174 -220 11 -12 20 -26 20 -33 0 -6 14 -21
30 -34 17 -12 30 -26 30 -31 0 -17 230 -255 365 -379 182 -167 183 -168 189
-168 3 0 52 -37 109 -83 56 -46 129 -101 162 -123 129 -87 153 -103 235 -156
47 -30 96 -60 110 -67 14 -7 52 -28 85 -46 72 -41 253 -131 350 -175 39 -17
81 -37 95 -44 14 -7 51 -21 83 -30 31 -10 57 -22 57 -27 0 -5 5 -9 12 -9 18 0
152 -43 158 -50 3 -4 30 -13 60 -20 30 -7 69 -18 85 -25 28 -12 112 -34 195
-50 19 -4 40 -11 45 -15 10 -7 144 -34 230 -46 28 -3 55 -10 60 -14 13 -11
262 -38 414 -47 67 -3 124 -10 127 -15 7 -11 471 -11 478 0 3 5 61 12 128 15
147 8 411 37 418 46 3 4 65 17 138 29 72 12 140 26 150 31 9 5 62 19 117 31
55 12 105 26 110 30 6 4 42 15 80 25 39 9 75 21 80 25 6 4 44 18 85 31 41 12
84 27 95 34 11 6 46 20 78 30 31 11 57 23 57 27 0 4 7 8 15 8 28 0 403 183
495 241 14 9 47 29 73 45 26 16 77 48 112 71 35 24 69 43 75 43 5 0 10 5 10
10 0 6 10 14 23 19 12 5 55 34 95 65 40 31 77 56 82 56 5 0 15 9 22 20 7 11
17 20 23 20 6 0 49 34 97 75 48 41 89 75 92 75 3 0 29 25 58 55 29 30 56 55
61 55 11 0 257 244 257 255 0 5 25 33 55 62 30 29 55 56 55 59 0 3 34 44 75
92 41 48 75 91 75 97 0 6 9 16 20 23 11 7 20 17 20 22 0 5 25 42 56 82 31 40
59 80 62 88 3 8 27 45 53 81 26 36 57 84 68 105 12 21 35 59 51 84 71 109 260
491 260 525 0 8 4 15 8 15 4 0 16 26 27 58 10 31 24 66 30 77 7 11 22 54 34
95 13 41 27 80 31 85 4 6 18 51 30 100 13 50 26 95 30 100 5 6 18 57 30 115
13 58 26 110 30 115 4 6 16 62 25 125 10 63 22 117 25 120 10 7 39 269 47 418
3 67 10 125 15 128 11 7 11 471 0 478 -5 3 -12 61 -15 128 -9 155 -35 387 -47
413 -5 11 -16 67 -25 124 -9 57 -21 111 -26 120 -4 9 -18 60 -29 114 -11 54
-24 105 -30 115 -5 9 -19 58 -31 107 -13 50 -26 92 -30 95 -4 3 -17 39 -29 80
-12 41 -26 80 -31 86 -5 6 -17 37 -28 70 -10 32 -26 73 -34 89 -9 17 -28 57
-42 90 -36 80 -128 265 -170 340 -18 33 -39 71 -46 85 -11 22 -93 152 -139
220 -9 14 -41 61 -70 105 -30 44 -91 126 -137 182 -46 57 -83 107 -83 112 0 6
-7 14 -15 18 -8 5 -26 24 -39 42 -48 64 -249 272 -369 381 -67 61 -134 122
-148 136 -15 14 -36 31 -47 37 -11 7 -63 47 -116 90 -52 42 -98 77 -101 77 -4
0 -41 25 -82 56 -41 31 -88 63 -104 71 -16 8 -29 19 -29 24 0 5 -5 9 -11 9 -6
0 -36 17 -67 38 -31 20 -72 45 -92 55 -19 10 -62 33 -95 52 -33 19 -76 43 -95
52 -19 10 -37 21 -40 24 -3 4 -30 17 -60 30 -30 13 -61 29 -68 36 -7 7 -20 13
-28 13 -9 0 -53 18 -100 40 -47 22 -91 40 -97 40 -7 0 -21 6 -32 14 -11 7 -54
23 -95 36 -41 12 -79 26 -85 30 -5 4 -46 18 -90 30 -44 12 -84 26 -90 30 -11
9 -174 50 -199 50 -9 0 -16 4 -16 9 0 4 -60 18 -132 31 -73 12 -137 26 -143
30 -12 10 -335 50 -398 50 -23 0 -48 5 -54 11 -12 12 -544 21 -708 12z m815
-2868 l0 -1175 1175 0 1175 0 0 -505 0 -505 -1175 0 -1175 0 0 -1175 0 -1175
-502 2 -503 3 -3 1173 -2 1172 -1170 0 -1170 0 0 505 0 505 1170 0 1170 0 0
1168 c0 643 3 1172 7 1175 3 4 231 7 505 7 l498 0 0 -1175z"/>
</g>
</svg>
