<svg viewBox="-26.412 -20.699 64.714 51.2" width="64.714" height="51.2" xmlns="http://www.w3.org/2000/svg" transform="rotate(180)"><path d="m.986 22.967-5.034-7.552 2.038-2.038 2.038-2.055-.736-2.26C-1.84 5.621-2.319 4.816-3.723 4.08c-.548-.291-.993-.36-2.312-.377-2.894 0-4.469.822-5.497 2.911-.753 1.524-.685 2.842.24 4.777.36.736.599 1.387.548 1.438-.034.051-3.579 1.336-7.877 2.86-7.791 2.774-7.791 2.774-7.791 2.329 0-.24 1.575-6.456 3.476-13.802l3.459-13.357 8.476-.051 8.476-.034 4.23 4.23L5.952-.749l4.247-4.247 4.23-4.23h8.511c7.945 0 8.511.017 8.596.308.051.154 1.592 6.096 3.442 13.168 3.014 11.61 3.579 14.093 3.236 14.093-.069 0-3.271-1.13-7.158-2.5-3.87-1.387-7.363-2.62-7.757-2.757l-.702-.24.702-1.49c.634-1.336.719-1.627.702-2.688-.017-2.603-1.884-4.572-4.743-5.017-1.918-.308-3.665.24-4.777 1.473-.634.702-.788 1.045-1.832 4.144l-.668 1.969 2.055 2.072 2.055 2.072-5.034 7.569-5.052 7.552-5.017-7.534Z" style="fill:#fff"/><path d="m3.606-8.746-2.432-2.449 2.38-2.483 2.38-2.483 2.483 2.483 2.5 2.483-2.449 2.449-2.432 2.432-2.432-2.432Zm-22.484-8.185v-3.767H5.01l-3.767 3.767-3.767 3.767h-16.353v-3.767Zm29.71 0-3.767-3.767h23.888v7.534H14.599l-3.767-3.767Z" style="fill:#fff"/></svg>