<svg version="1.1" id="Layer_1" xmlns="http://www.w3.org/2000/svg" xmlns:xlink="http://www.w3.org/1999/xlink" x="0px" y="0px"
	 width="100%" viewBox="0 0 1000 1000" enable-background="new 0 0 1000 1000" xml:space="preserve">
<path fill="#FFFFFF" opacity="1.000000" stroke="none" 
	d="
M470.830566,43.999996 
	C487.725861,43.666679 504.152466,42.849972 520.558411,43.153152 
	C533.659790,43.395264 546.786377,44.577808 559.808594,46.126511 
	C571.671448,47.537331 583.448975,49.796188 595.188416,52.071697 
	C603.700012,53.721535 612.202209,55.626343 620.504089,58.102959 
	C632.625488,61.719009 644.634521,65.749832 656.557495,69.981262 
	C666.362061,73.460869 676.168762,77.058968 685.617615,81.384186 
	C697.425842,86.789452 709.024902,92.707077 720.422485,98.937325 
	C730.613403,104.508003 740.647583,110.444260 750.309082,116.882271 
	C759.677307,123.124878 768.528320,130.151703 777.522583,136.945099 
	C786.123840,143.441559 794.944702,149.704529 803.062317,156.767365 
	C810.582886,163.310867 817.257385,170.821182 824.393860,177.814575 
	C827.234497,180.598206 830.594604,182.888107 833.224426,185.842361 
	C837.787781,190.968643 841.917664,196.477951 846.320374,201.750671 
	C851.157654,207.544006 856.202881,213.166199 860.956299,219.026138 
	C864.183960,223.005142 867.066650,227.264069 870.101135,231.399673 
	C875.147461,238.277100 880.212708,245.140930 885.216125,252.049500 
	C886.024109,253.165115 886.533752,254.493591 887.214722,255.704926 
	C893.659729,267.170654 900.309753,278.526825 906.494324,290.131165 
	C910.799561,298.209167 914.406128,306.656799 918.437744,314.884003 
	C923.601807,325.422150 927.317139,336.481201 931.326660,347.488281 
	C936.014465,360.357147 940.296265,373.209656 943.040100,386.610168 
	C944.911133,395.748138 947.232361,404.798035 948.942017,413.963837 
	C950.868713,424.294220 951.897278,434.803925 954.087952,445.071045 
	C959.586853,470.842804 957.665955,496.935272 957.879211,522.921082 
	C957.958435,532.585205 957.022339,542.302124 955.903015,551.919739 
	C954.650208,562.684387 952.899780,573.407288 950.924622,584.066650 
	C949.285400,592.913086 947.107056,601.665527 944.979248,610.413757 
	C943.121887,618.050293 941.068542,625.641235 938.976318,633.217712 
	C937.399292,638.928162 935.955688,644.710083 933.854614,650.232605 
	C931.065063,657.564697 927.593384,664.634033 924.599915,671.892639 
	C921.609497,679.143738 919.233093,686.671265 915.889160,693.747620 
	C911.566467,702.894714 906.623901,711.753723 901.808472,720.661194 
	C898.675354,726.456909 895.476318,732.232910 891.976990,737.810852 
	C887.496216,744.953064 882.666016,751.875549 878.020691,758.915283 
	C875.199707,763.190308 872.618652,767.635681 869.608276,771.770386 
	C866.682251,775.789124 863.279297,779.456970 860.208679,783.375244 
	C857.205444,787.207458 854.599060,791.373962 851.391785,795.018127 
	C844.316650,803.056763 837.172363,811.054443 829.683105,818.703430 
	C822.038635,826.510925 814.021912,833.960754 806.028748,841.417664 
	C799.688721,847.332275 793.438232,853.407654 786.605713,858.713196 
	C777.875305,865.492737 768.596436,871.565552 759.560059,877.951599 
	C752.671570,882.819824 745.878235,887.829407 738.873291,892.523376 
	C735.415344,894.840454 731.578979,896.594482 727.905579,898.588013 
	C722.721558,901.401184 717.590759,904.320801 712.328430,906.979675 
	C702.266235,912.063599 692.149536,917.041687 682.002380,921.953918 
	C679.861694,922.990173 677.488281,923.542297 675.229431,924.338440 
	C667.991272,926.889404 660.596436,929.076477 653.556885,932.092163 
	C642.135437,936.985107 630.336182,940.421875 618.234619,943.076294 
	C610.399902,944.794922 602.757629,947.473816 594.879822,948.893982 
	C581.656921,951.277649 568.145752,952.261658 555.079773,955.250305 
	C545.658142,957.405396 536.345459,957.865417 526.856628,958.020630 
	C511.104370,958.278259 495.352112,958.989929 479.603943,958.886353 
	C469.096527,958.817261 458.542847,958.116943 448.106293,956.883240 
	C435.253265,955.363892 422.397430,953.491028 409.734039,950.852966 
	C397.694733,948.344971 385.891388,944.692566 374.004395,941.469238 
	C366.274841,939.373230 358.443787,937.535461 350.903839,934.883484 
	C339.598572,930.907227 328.414734,926.542908 317.358734,921.914856 
	C309.065338,918.443359 300.923737,914.547546 292.950928,910.387695 
	C283.075775,905.235291 273.296082,899.862488 263.748657,894.129395 
	C253.517014,887.985413 243.426682,881.567871 233.606888,874.788513 
	C225.847046,869.431458 218.336441,863.641663 211.180389,857.501770 
	C203.804153,851.172974 197.028656,844.147766 189.921494,837.500854 
	C181.265701,829.405640 171.959045,821.916809 163.988617,813.201172 
	C154.101593,802.389587 145.216034,790.653076 136.053101,779.192017 
	C130.945297,772.803101 125.868668,766.354065 121.296265,759.582214 
	C116.526245,752.517578 112.391312,745.025024 107.956062,737.733337 
	C103.094742,729.741272 97.961533,721.901978 93.413521,713.736145 
	C90.079391,707.749878 87.516937,701.335388 84.576599,695.127747 
	C81.476166,688.582092 78.149567,682.135803 75.280792,675.491028 
	C73.512466,671.395142 72.372147,667.023132 71.025284,662.751282 
	C66.991463,649.957092 62.836433,637.197815 59.042328,624.332458 
	C56.729248,616.489136 54.773842,608.522644 53.058250,600.525513 
	C51.130459,591.539246 50.419956,582.224365 47.774368,573.477539 
	C44.879845,563.907654 44.491837,554.234924 44.051239,544.503662 
	C43.206306,525.842407 41.912868,507.154846 42.222107,488.501648 
	C42.504261,471.482544 44.362267,454.464020 46.099693,437.504028 
	C47.183048,426.928833 49.086792,416.416107 51.078945,405.962341 
	C52.701931,397.445740 54.845821,389.016998 57.052979,380.626709 
	C58.804695,373.967743 60.808296,367.359467 63.044304,360.846893 
	C66.890846,349.643494 70.739784,338.427155 75.090233,327.414795 
	C78.681946,318.322998 82.694656,309.364868 87.079842,300.628113 
	C91.704430,291.414368 96.928047,282.497223 102.009567,273.518158 
	C106.123985,266.247925 110.108887,258.874817 114.715042,251.920776 
	C119.330582,244.952591 124.709854,238.494385 129.626633,231.719925 
	C132.279312,228.064987 134.392426,223.994858 137.229843,220.502777 
	C142.374741,214.170807 147.913269,208.160156 153.223465,201.960541 
	C158.075775,196.295517 162.517731,190.238968 167.722717,184.925217 
	C176.047485,176.426529 184.735504,168.270981 193.492905,160.212646 
	C200.926483,153.372452 208.578049,146.758652 216.324692,140.273483 
	C220.316833,136.931427 224.658813,133.989288 228.963196,131.042450 
	C235.231354,126.751198 241.604202,122.612610 247.940018,118.420418 
	C253.093826,115.010315 258.207458,111.535667 263.433716,108.239952 
	C268.347839,105.141068 273.354828,102.185181 278.380157,99.268295 
	C281.967102,97.186310 285.589325,95.146248 289.305817,93.310135 
	C297.663971,89.180801 305.964233,84.894791 314.527252,81.231636 
	C322.019470,78.026573 329.826263,75.551125 337.515869,72.814629 
	C347.769501,69.165665 357.924957,65.175537 368.343109,62.072468 
	C378.948608,58.913616 389.750275,56.302860 400.596710,54.093533 
	C412.469269,51.675194 424.757935,50.948235 436.372284,47.713985 
	C447.662720,44.569954 459.005432,44.937775 470.830566,43.999996 
M601.500000,548.000000 
	C662.592163,548.000000 723.684326,548.000000 784.713745,548.000000 
	C784.713745,514.360291 784.713745,481.289673 784.713745,447.825256 
	C706.359192,447.825256 628.290161,447.825256 549.827209,447.825256 
	C549.827209,369.694489 549.827209,291.958740 549.827209,214.286407 
	C516.359985,214.286407 483.289307,214.286407 449.824890,214.286407 
	C449.824890,292.307831 449.824890,370.043579 449.824890,448.173157 
	C371.360809,448.173157 293.291748,448.173157 215.286591,448.173157 
	C215.286591,481.640350 215.286591,514.710999 215.286591,548.175415 
	C293.641479,548.175415 371.710541,548.175415 450.173462,548.175415 
	C450.173462,626.639465 450.173462,704.708557 450.173462,782.713257 
	C483.640656,782.713257 516.711304,782.713257 550.175659,782.713257 
	C550.175659,704.358276 550.175659,626.289246 550.175659,548.000000 
	C567.213623,548.000000 583.856812,548.000000 601.500000,548.000000 
z"/>
</svg>