<?xml version="1.0" standalone="no"?>
<!DOCTYPE svg PUBLIC "-//W3C//DTD SVG 20010904//EN"
 "http://www.w3.org/TR/2001/REC-SVG-20010904/DTD/svg10.dtd">
<svg version="1.0" xmlns="http://www.w3.org/2000/svg"
 width="958.000000pt" height="980.000000pt" viewBox="0 0 958.000000 980.000000"
 preserveAspectRatio="xMidYMid meet">

<g transform="translate(0.000000,980.000000) scale(0.100000,-0.100000)"
fill="#000000" stroke="none">
<path d="M3237 9790 c-1033 -93 -1933 -595 -2545 -1419 -351 -471 -571 -1016
-659 -1632 -25 -179 -25 -711 0 -889 57 -400 157 -736 321 -1075 345 -713 893
-1268 1604 -1624 1058 -530 2338 -480 3353 129 860 517 1459 1371 1648 2350
54 279 75 670 52 952 -54 631 -273 1225 -648 1755 -217 307 -569 650 -885 861
-464 310 -964 500 -1512 573 -173 23 -570 33 -729 19z m484 -771 c662 -52
1258 -326 1725 -793 419 -420 687 -947 775 -1531 39 -254 36 -592 -7 -855
-176 -1068 -988 -1944 -2044 -2204 -224 -55 -328 -68 -595 -73 -256 -6 -395 5
-603 47 -941 189 -1729 878 -2042 1787 -227 657 -197 1374 84 2002 365 816
1095 1401 1966 1575 253 50 492 65 741 45z"/>
<path d="M3245 8173 c-408 -29 -820 -176 -1123 -402 -426 -318 -691 -835 -750
-1463 l-8 -88 282 0 283 0 6 48 c37 274 123 523 249 717 72 111 87 129 189
233 220 225 542 360 902 380 l120 7 0 285 0 285 -50 1 c-27 0 -72 -1 -100 -3z"/>
<path d="M6227 3342 l-787 -787 1157 -1156 c1213 -1211 1212 -1210 1376 -1288
479 -228 1052 -91 1370 327 95 125 154 247 198 412 20 74 23 108 23 265 0 163
-3 189 -27 280 -32 120 -115 293 -188 390 -44 60 -2314 2345 -2329 2345 -3 0
-359 -354 -793 -788z"/>
</g>
</svg>
